<?xml version="1.0" encoding="UTF-8"?>
<svg width="60px" height="60px" viewBox="0 0 60 60" version="1.1" xmlns="http://www.w3.org/2000/svg" xmlns:xlink="http://www.w3.org/1999/xlink">
    <title>india</title>
    <g id="india" stroke="none" stroke-width="1" fill="none" fill-rule="evenodd">
        <g id="iconfinder_Infographic_Travel_Vacation_Holiday_User_Interface-22_2926010" transform="translate(3.000000, 9.000000)" fill="#000000" fill-rule="nonzero" stroke="#000000">
            <path d="M54.7226389,11 C54.5014475,10.4384766 53.8115061,9.8525391 53.012678,9.1738281 C52.2475413,8.5234375 51.3798655,7.7866211 51.1327952,7.2016601 L50.672346,6.1108398 L50.2118968,7.2016601 C49.9648265,7.786621 49.0971507,8.5239257 48.332014,9.1738281 C47.5331858,9.8525391 46.8432444,10.4384766 46.622053,11 C46.156721,12.1811523 46.8700999,13.2900391 46.9008616,13.3369141 L47.0488108,13.5625 L47.07176,13.5625 L47.07176,22.7529297 L45.8441599,22.7529297 C45.925886,22.4003906 45.9512766,21.9659424 45.7729319,21.5136719 C45.5820139,21.0288086 45.0029124,20.5371094 44.3329905,19.9672852 C43.7065257,19.4350586 42.9965647,18.8320313 42.7997874,18.366211 L42.3398265,17.2753907 L41.878889,18.3657227 C41.6821117,18.8320313 40.9721507,19.4350586 40.3456859,19.9672852 C39.6752757,20.5371094 39.0966625,21.0288086 38.9052562,21.5136719 C38.7270946,21.9660034 38.7525462,22.4004517 38.8342723,22.7529297 L37.6064281,22.7529297 L37.6064281,21.3695068 C37.9582347,20.7751464 39.2778759,18.2679443 38.2387523,15.6293945 C37.6879711,14.2314453 35.7826976,12.6127929 33.5771312,10.7387695 C31.3207835,8.8216552 28.7750072,6.6532592 27.9399242,4.7769775 L27.9399242,0 L26.9399242,0 L26.9399242,4.7769775 C26.1048412,6.6532592 23.5590648,8.8216552 21.3027172,10.7387695 C19.0971508,12.6127929 17.1918774,14.2314453 16.6410961,15.6293945 C15.6019726,18.2679443 16.9216137,20.7751465 17.2734203,21.3695068 L17.2734203,22.7529297 L16.0455761,22.7529297 C16.1273022,22.4003296 16.1527538,21.9657593 15.9745922,21.5131836 C15.783186,21.0288086 15.2045727,20.5371094 14.5341625,19.9672852 C13.9076977,19.4350586 13.1977367,18.8320313 13.0009594,18.3657227 L12.5400219,17.2753907 L12.080061,18.366211 C11.8832837,18.8320313 11.1733227,19.4350587 10.5468579,19.9672852 C9.87693596,20.5371094 9.29783446,21.0288086 9.10691646,21.5131836 C8.92857176,21.9656982 8.95396236,22.4003296 9.03568846,22.7529297 L7.80808836,22.7529297 L7.80808836,13.5625 L7.83103756,13.5625 L7.97898676,13.3369141 C8.00974846,13.2900391 8.72312736,12.1811524 8.25779536,11 C8.03660396,10.4384766 7.34666256,9.8525391 6.54783446,9.1738281 C5.78269776,8.5239258 4.91502196,7.7866211 4.66795166,7.2016601 L4.20750246,6.1108398 L3.74705326,7.2016601 C3.49998296,7.786621 2.63230716,8.5234374 1.86717046,9.1738281 C1.06834206,9.8525391 0.37840066,10.4384766 0.15720926,11 C-0.30812274,12.1811523 0.40476786,13.2900391 0.43552956,13.3369141 L0.58347876,13.5625 L0.60642796,13.5625 L0.60642796,42.6040039 L6.80808816,42.6040039 L7.80808816,42.6040039 L9.57761936,42.6040039 L15.5034006,42.6040039 L17.2734201,42.6040039 L18.2734201,42.6040039 L21.7534006,42.6040039 L33.1264475,42.6040039 L36.606428,42.6040039 L37.606428,42.6040039 L39.3764475,42.6040039 L45.3022287,42.6040039 L47.0717599,42.6040039 L48.0717599,42.6040039 L54.2734201,42.6040039 L54.2734201,13.5625 L54.2963693,13.5625 L54.4443185,13.3369141 C54.4750803,13.2900391 55.187971,12.1811523 54.7226389,11 Z M47.5527171,11.3662109 C47.6816233,11.0385742 48.3710765,10.4526367 48.9794749,9.9360351 C49.5971507,9.4111328 50.2289866,8.8740234 50.672346,8.3261718 C51.1157054,8.8740234 51.7475413,9.4111327 52.3652171,9.9355468 C52.9736155,10.4526366 53.6630687,11.0385741 53.7919749,11.3662109 C53.9721507,11.8237304 53.8364085,12.2939453 53.7221507,12.5625 L47.6230296,12.5625 C47.5082835,12.2939453 47.372053,11.8242188 47.5527171,11.3662109 Z M39.8359202,21.8803711 C39.9350413,21.628418 40.5214671,21.1298828 40.9931468,20.7294922 C41.4775218,20.3178711 41.9721507,19.897461 42.3393382,19.465332 C42.7060374,19.8974609 43.2011546,20.3178711 43.6855296,20.7294922 C44.156721,21.1298828 44.7431468,21.628418 44.8422679,21.8803711 C44.9701976,22.2036133 44.8896312,22.5390625 44.8066234,22.7529297 L39.8710765,22.7529297 C39.7875803,22.5400391 39.7075022,22.2055664 39.8359202,21.8803711 Z M17.57176,15.9956055 C18.0302561,14.8310547 19.934553,13.2133789 21.950178,11.5009766 C24.0937327,9.6796875 26.3002757,7.8046875 27.4399241,5.96875 C28.5795725,7.8046875 30.7861155,9.6796875 32.9296702,11.5009766 C34.9452952,13.2133789 36.8495921,14.8310547 37.3080882,15.9956055 C38.1088694,18.0292969 37.1796702,20.0625 36.8188304,20.7290039 L18.0610179,20.7290039 C17.700178,20.0625 16.7709788,18.0292969 17.57176,15.9956055 Z M10.0375803,21.8798828 C10.1367014,21.628418 10.7231272,21.1298828 11.1943186,20.7294922 C11.6786936,20.3178711 12.1738108,19.897461 12.54051,19.465332 C12.9076975,19.8974609 13.4023264,20.3178711 13.8867014,20.7294922 C14.3583811,21.1298828 14.9448069,21.628418 15.043928,21.8798828 C15.1713694,22.203125 15.0912913,22.5385742 15.0077952,22.7529297 L10.0732249,22.7529297 C9.99021706,22.5385742 9.91013886,22.203125 10.0375803,21.8798828 Z M1.08787326,11.3662109 C1.21677946,11.0385742 1.90623266,10.4526367 2.51463106,9.9355468 C3.13230686,9.4111327 3.76414276,8.8740234 4.20750216,8.3261718 C4.65086156,8.8740234 5.28269746,9.4111327 5.90037326,9.9360351 C6.50877166,10.4526367 7.19822486,11.0385742 7.32713106,11.3662109 C7.50730686,11.8232421 7.37156466,12.2929687 7.25681856,12.5625 L1.15769746,12.5625 C1.04295136,12.2939453 0.90720926,11.8242188 1.08787326,11.3662109 Z M6.80808816,41.6040039 L1.60642796,41.6040039 L1.60642796,13.5625 L6.80808816,13.5625 L6.80808816,22.7529297 L6.80808816,41.6040039 L6.80808816,41.6040039 Z M10.5776194,41.6040039 L10.5776194,33.0517578 C10.5776194,31.7866211 11.3603342,30.6860351 12.54051,30.2666016 C13.7206858,30.6860352 14.5034006,31.7866211 14.5034006,33.0517578 L14.5034006,41.6040039 L10.5776194,41.6040039 Z M17.2734203,41.604004 L15.5034007,41.604004 L15.5034007,33.0517578 C15.5034007,31.2910156 14.3705882,29.7680664 12.6840648,29.2617187 L12.54051,29.21875 L12.3969553,29.2617188 C10.7104319,29.7680665 9.57761936,31.2910157 9.57761936,33.0517579 L9.57761936,41.604004 L7.80808816,41.604004 L7.80808816,23.7529297 L9.49363506,23.7529297 L15.5878734,23.7529297 L17.2734203,23.7529297 L17.2734203,41.604004 L17.2734203,41.604004 Z M22.7534007,41.6040039 L22.7534007,32.3105469 C22.7534007,29.3447266 24.6303538,26.772461 27.4399241,25.8632813 C30.2494944,26.772461 32.1264475,29.3447266 32.1264475,32.3105469 L32.1264475,41.6040039 L22.7534007,41.6040039 L22.7534007,41.6040039 Z M36.606428,41.6040039 L33.1264475,41.6040039 L33.1264475,32.3105469 C33.1264475,28.8496094 30.8989084,25.8554688 27.5834787,24.8603516 L27.4399241,24.8173828 L27.2963694,24.8603516 C23.9809397,25.8554688 21.7534006,28.8496094 21.7534006,32.3105469 L21.7534006,41.6040039 L18.2734201,41.6040039 L18.2734201,22.7529297 L18.2734201,21.7290039 L36.606428,21.7290039 L36.606428,22.7529297 L36.606428,41.6040039 L36.606428,41.6040039 Z M40.3764475,41.6040039 L40.3764475,33.0517578 C40.3764475,31.7866211 41.1591623,30.6860351 42.3393381,30.2666016 C43.5195139,30.6860352 44.3022287,31.7866211 44.3022287,33.0517578 L44.3022287,41.6040039 L40.3764475,41.6040039 Z M47.0717602,41.604004 L45.3022288,41.604004 L45.3022288,33.0517578 C45.3022288,31.2910156 44.1694163,29.7680664 42.4828929,29.2617187 L42.3393382,29.21875 L42.1957835,29.2617188 C40.5092601,29.7680665 39.3764476,31.2910157 39.3764476,33.0517579 L39.3764476,41.604004 L37.6064281,41.604004 L37.6064281,23.7529297 L39.291975,23.7529297 L45.3862133,23.7529297 L47.0717602,23.7529297 L47.0717602,41.604004 L47.0717602,41.604004 Z M53.2734202,41.6040039 L48.07176,41.6040039 L48.07176,22.7529297 L48.07176,13.5625 L53.2734202,13.5625 L53.2734202,41.6040039 Z" id="Shape"></path>
        </g>
    </g>
</svg>